<mxfile host="app.diagrams.net" modified="2022-04-23T09:02:37.090Z" agent="5.0 (Windows NT 10.0; Win64; x64) AppleWebKit/537.36 (KHTML, like Gecko) Chrome/100.0.4896.127 Safari/537.36" etag="jhIPayW34V2_IKAlihSx" version="17.4.6" type="github">
  <diagram name="Page-1" id="97916047-d0de-89f5-080d-49f4d83e522f">
    <mxGraphModel dx="3829.5" dy="1266" grid="1" gridSize="10" guides="0" tooltips="1" connect="1" arrows="1" fold="1" page="1" pageScale="1.5" pageWidth="1169" pageHeight="827" background="#E6E6E6" math="0" shadow="0">
      <root>
        <mxCell id="0" />
        <mxCell id="1" parent="0" />
        <mxCell id="2" value="Будівельна компанія" style="rounded=1;fillColor=#10739E;strokeColor=none;shadow=1;gradientColor=none;fontStyle=1;fontColor=#FFFFFF;fontSize=14;" parent="1" vertex="1">
          <mxGeometry x="600" y="205.5" width="200" height="60" as="geometry" />
        </mxCell>
        <mxCell id="3" value="Проект" style="rounded=1;fillColor=#10739E;strokeColor=none;shadow=1;gradientColor=none;fontStyle=1;fontColor=#FFFFFF;fontSize=14;" parent="1" vertex="1">
          <mxGeometry x="590" y="345.5" width="220" height="60" as="geometry" />
        </mxCell>
        <mxCell id="5" value="Управління проектом" style="rounded=1;fillColor=#10739E;strokeColor=none;shadow=1;gradientColor=none;fontStyle=1;fontColor=#FFFFFF;fontSize=14;" parent="1" vertex="1">
          <mxGeometry x="370" y="470" width="200" height="60" as="geometry" />
        </mxCell>
        <mxCell id="7" value="Вихід" style="rounded=1;fillColor=#10739E;strokeColor=none;shadow=1;gradientColor=none;fontStyle=1;fontColor=#FFFFFF;fontSize=14;" parent="1" vertex="1">
          <mxGeometry x="1272" y="350" width="200" height="60" as="geometry" />
        </mxCell>
        <mxCell id="29" value="" style="edgeStyle=elbowEdgeStyle;elbow=vertical;strokeWidth=4;endArrow=block;endFill=1;fontStyle=1;strokeColor=#23445D;" parent="1" source="2" target="3" edge="1">
          <mxGeometry x="22" y="165.5" width="100" height="100" as="geometry">
            <mxPoint x="22" y="265.5" as="sourcePoint" />
            <mxPoint x="122" y="165.5" as="targetPoint" />
          </mxGeometry>
        </mxCell>
        <mxCell id="30" value="" style="edgeStyle=elbowEdgeStyle;elbow=vertical;strokeWidth=4;endArrow=block;endFill=1;fontStyle=1;strokeColor=#23445D;" parent="1" source="3" target="5" edge="1">
          <mxGeometry x="22" y="165.5" width="100" height="100" as="geometry">
            <mxPoint x="22" y="265.5" as="sourcePoint" />
            <mxPoint x="122" y="165.5" as="targetPoint" />
          </mxGeometry>
        </mxCell>
        <mxCell id="33" value="" style="edgeStyle=elbowEdgeStyle;elbow=vertical;strokeWidth=4;endArrow=block;endFill=1;fontStyle=1;dashed=1;strokeColor=#23445D;entryX=0.5;entryY=0;entryDx=0;entryDy=0;" parent="1" source="2" target="7" edge="1">
          <mxGeometry x="22" y="165.5" width="100" height="100" as="geometry">
            <mxPoint x="22" y="265.5" as="sourcePoint" />
            <mxPoint x="122" y="165.5" as="targetPoint" />
            <Array as="points">
              <mxPoint x="1330" y="310" />
              <mxPoint x="1062" y="295.5" />
            </Array>
          </mxGeometry>
        </mxCell>
        <mxCell id="41" value="" style="edgeStyle=elbowEdgeStyle;elbow=vertical;strokeWidth=4;endArrow=block;endFill=1;fontStyle=1;strokeColor=#23445D;" parent="1" target="12" edge="1">
          <mxGeometry x="62" y="195.5" width="100" height="100" as="geometry">
            <mxPoint x="382" y="945.5" as="sourcePoint" />
            <mxPoint x="162" y="195.5" as="targetPoint" />
          </mxGeometry>
        </mxCell>
        <mxCell id="3_1e2oPx1GptNMxZSMDV-56" value="Персонал" style="rounded=1;fillColor=#10739E;strokeColor=none;shadow=1;gradientColor=none;fontStyle=1;fontColor=#FFFFFF;fontSize=14;" vertex="1" parent="1">
          <mxGeometry x="-70" y="350" width="220" height="60" as="geometry" />
        </mxCell>
        <mxCell id="3_1e2oPx1GptNMxZSMDV-57" value="" style="edgeStyle=elbowEdgeStyle;elbow=vertical;strokeWidth=4;endArrow=block;endFill=1;fontStyle=1;strokeColor=#23445D;exitX=0.5;exitY=1;exitDx=0;exitDy=0;" edge="1" parent="1" target="3_1e2oPx1GptNMxZSMDV-56" source="2">
          <mxGeometry x="-380" y="170" width="100" height="100" as="geometry">
            <mxPoint x="370" y="270" as="sourcePoint" />
            <mxPoint x="-280" y="170" as="targetPoint" />
          </mxGeometry>
        </mxCell>
        <mxCell id="3_1e2oPx1GptNMxZSMDV-58" value="Управління персоналу" style="rounded=1;fillColor=#10739E;strokeColor=none;shadow=1;gradientColor=none;fontStyle=1;fontColor=#FFFFFF;fontSize=14;" vertex="1" parent="1">
          <mxGeometry x="-210" y="470" width="220" height="60" as="geometry" />
        </mxCell>
        <mxCell id="3_1e2oPx1GptNMxZSMDV-60" value="" style="edgeStyle=elbowEdgeStyle;elbow=vertical;strokeWidth=4;endArrow=block;endFill=1;fontStyle=1;strokeColor=#23445D;exitX=0.5;exitY=1;exitDx=0;exitDy=0;entryX=0.5;entryY=0;entryDx=0;entryDy=0;" edge="1" parent="1" source="3_1e2oPx1GptNMxZSMDV-56" target="3_1e2oPx1GptNMxZSMDV-58">
          <mxGeometry x="-810" y="374.5" width="100" height="100" as="geometry">
            <mxPoint x="342" y="470" as="sourcePoint" />
            <mxPoint x="-160" y="554.5" as="targetPoint" />
          </mxGeometry>
        </mxCell>
        <mxCell id="3_1e2oPx1GptNMxZSMDV-64" value="" style="edgeStyle=elbowEdgeStyle;elbow=vertical;strokeWidth=4;endArrow=block;endFill=1;fontStyle=1;strokeColor=#23445D;exitX=1;exitY=0.5;exitDx=0;exitDy=0;entryX=0;entryY=0.5;entryDx=0;entryDy=0;exitPerimeter=0;" edge="1" parent="1" source="3_1e2oPx1GptNMxZSMDV-87" target="3_1e2oPx1GptNMxZSMDV-67">
          <mxGeometry x="-800" y="384.5" width="100" height="100" as="geometry">
            <mxPoint x="40" y="420" as="sourcePoint" />
            <mxPoint x="-190" y="640" as="targetPoint" />
            <Array as="points">
              <mxPoint x="-250" y="580" />
              <mxPoint x="-460" y="600" />
            </Array>
          </mxGeometry>
        </mxCell>
        <mxCell id="3_1e2oPx1GptNMxZSMDV-67" value="Найняти працівника" style="rounded=1;fillColor=#10739E;strokeColor=none;shadow=1;gradientColor=none;fontStyle=1;fontColor=#FFFFFF;fontSize=14;" vertex="1" parent="1">
          <mxGeometry x="-220" y="580" width="220" height="60" as="geometry" />
        </mxCell>
        <mxCell id="3_1e2oPx1GptNMxZSMDV-68" value="" style="edgeStyle=elbowEdgeStyle;elbow=vertical;strokeWidth=4;endArrow=block;endFill=1;fontStyle=1;strokeColor=#23445D;entryX=0;entryY=0.5;entryDx=0;entryDy=0;exitX=1;exitY=0.5;exitDx=0;exitDy=0;exitPerimeter=0;" edge="1" parent="1" target="3_1e2oPx1GptNMxZSMDV-69" source="3_1e2oPx1GptNMxZSMDV-87">
          <mxGeometry x="-570" y="384.5" width="100" height="100" as="geometry">
            <mxPoint x="-280" y="630" as="sourcePoint" />
            <mxPoint x="40" y="640" as="targetPoint" />
            <Array as="points">
              <mxPoint x="-250" y="580" />
              <mxPoint x="-240" y="660" />
              <mxPoint x="-210" y="560" />
              <mxPoint x="-240" y="630" />
              <mxPoint x="-150" y="560" />
              <mxPoint x="-240" y="650" />
              <mxPoint x="100" y="560" />
              <mxPoint x="-230" y="600" />
            </Array>
          </mxGeometry>
        </mxCell>
        <mxCell id="3_1e2oPx1GptNMxZSMDV-69" value="Звільнити працівника" style="rounded=1;fillColor=#10739E;strokeColor=none;shadow=1;gradientColor=none;fontStyle=1;fontColor=#FFFFFF;fontSize=14;" vertex="1" parent="1">
          <mxGeometry x="-220" y="660" width="220" height="60" as="geometry" />
        </mxCell>
        <mxCell id="3_1e2oPx1GptNMxZSMDV-70" value="Персонал компанії" style="rounded=1;fillColor=#10739E;strokeColor=none;shadow=1;gradientColor=none;fontStyle=1;fontColor=#FFFFFF;fontSize=14;" vertex="1" parent="1">
          <mxGeometry x="70" y="470" width="220" height="60" as="geometry" />
        </mxCell>
        <mxCell id="3_1e2oPx1GptNMxZSMDV-71" value="" style="edgeStyle=elbowEdgeStyle;elbow=vertical;strokeWidth=4;endArrow=block;endFill=1;fontStyle=1;strokeColor=#23445D;exitX=0.5;exitY=1;exitDx=0;exitDy=0;entryX=0.5;entryY=0;entryDx=0;entryDy=0;" edge="1" parent="1" target="3_1e2oPx1GptNMxZSMDV-70" source="3_1e2oPx1GptNMxZSMDV-56">
          <mxGeometry x="-570" y="374.5" width="100" height="100" as="geometry">
            <mxPoint x="270" y="410" as="sourcePoint" />
            <mxPoint x="180" y="470" as="targetPoint" />
          </mxGeometry>
        </mxCell>
        <mxCell id="3_1e2oPx1GptNMxZSMDV-73" value="Директор" style="rounded=1;fillColor=#10739E;strokeColor=none;shadow=1;gradientColor=none;fontStyle=1;fontColor=#FFFFFF;fontSize=14;" vertex="1" parent="1">
          <mxGeometry x="80" y="580" width="220" height="60" as="geometry" />
        </mxCell>
        <mxCell id="3_1e2oPx1GptNMxZSMDV-74" value="" style="edgeStyle=elbowEdgeStyle;elbow=vertical;strokeWidth=4;endArrow=block;endFill=1;fontStyle=1;strokeColor=#23445D;entryX=0;entryY=0.5;entryDx=0;entryDy=0;exitX=1;exitY=0.5;exitDx=0;exitDy=0;exitPerimeter=0;" edge="1" parent="1" target="3_1e2oPx1GptNMxZSMDV-73" source="3_1e2oPx1GptNMxZSMDV-80">
          <mxGeometry x="-580" y="504.5" width="100" height="100" as="geometry">
            <mxPoint y="660" as="sourcePoint" />
            <mxPoint x="70" y="684.5" as="targetPoint" />
            <Array as="points">
              <mxPoint x="50" y="770" />
              <mxPoint x="50" y="590" />
            </Array>
          </mxGeometry>
        </mxCell>
        <mxCell id="3_1e2oPx1GptNMxZSMDV-80" value="" style="line;strokeWidth=2;html=1;rotation=90;" vertex="1" parent="1">
          <mxGeometry x="162.5" y="537.5" width="25" height="10" as="geometry" />
        </mxCell>
        <mxCell id="3_1e2oPx1GptNMxZSMDV-85" value="" style="edgeStyle=elbowEdgeStyle;elbow=vertical;strokeWidth=4;endArrow=block;endFill=1;fontStyle=1;strokeColor=#23445D;exitX=1;exitY=0.5;exitDx=0;exitDy=0;exitPerimeter=0;entryX=0;entryY=0.5;entryDx=0;entryDy=0;" edge="1" parent="1" source="3_1e2oPx1GptNMxZSMDV-80" target="3_1e2oPx1GptNMxZSMDV-86">
          <mxGeometry x="-570" y="514.5" width="100" height="100" as="geometry">
            <mxPoint x="240" y="580" as="sourcePoint" />
            <mxPoint x="50" y="770" as="targetPoint" />
            <Array as="points">
              <mxPoint x="50" y="560" />
              <mxPoint x="60" y="600" />
            </Array>
          </mxGeometry>
        </mxCell>
        <mxCell id="3_1e2oPx1GptNMxZSMDV-86" value="Адміністратор" style="rounded=1;fillColor=#10739E;strokeColor=none;shadow=1;gradientColor=none;fontStyle=1;fontColor=#FFFFFF;fontSize=14;" vertex="1" parent="1">
          <mxGeometry x="80" y="660" width="220" height="60" as="geometry" />
        </mxCell>
        <mxCell id="3_1e2oPx1GptNMxZSMDV-87" value="" style="line;strokeWidth=2;html=1;rotation=90;" vertex="1" parent="1">
          <mxGeometry x="-115" y="535" width="25" height="20" as="geometry" />
        </mxCell>
        <mxCell id="3_1e2oPx1GptNMxZSMDV-90" value="Робітники" style="rounded=1;fillColor=#10739E;strokeColor=none;shadow=1;gradientColor=none;fontStyle=1;fontColor=#FFFFFF;fontSize=14;" vertex="1" parent="1">
          <mxGeometry x="80" y="730" width="220" height="60" as="geometry" />
        </mxCell>
        <mxCell id="3_1e2oPx1GptNMxZSMDV-91" value="" style="edgeStyle=elbowEdgeStyle;elbow=vertical;strokeWidth=4;endArrow=block;endFill=1;fontStyle=1;strokeColor=#23445D;exitX=1;exitY=0.5;exitDx=0;exitDy=0;exitPerimeter=0;entryX=0;entryY=0.5;entryDx=0;entryDy=0;" edge="1" parent="1" source="3_1e2oPx1GptNMxZSMDV-80" target="3_1e2oPx1GptNMxZSMDV-90">
          <mxGeometry x="-580" y="759.5" width="100" height="100" as="geometry">
            <mxPoint x="165" y="800" as="sourcePoint" />
            <mxPoint x="70" y="880" as="targetPoint" />
            <Array as="points">
              <mxPoint x="50" y="670" />
              <mxPoint x="90" y="555" />
              <mxPoint x="50" y="845" />
            </Array>
          </mxGeometry>
        </mxCell>
        <mxCell id="3_1e2oPx1GptNMxZSMDV-92" value="Співробітники" style="rounded=1;fillColor=#10739E;strokeColor=none;shadow=1;gradientColor=none;fontStyle=1;fontColor=#FFFFFF;fontSize=14;" vertex="1" parent="1">
          <mxGeometry x="80" y="800" width="220" height="60" as="geometry" />
        </mxCell>
        <mxCell id="3_1e2oPx1GptNMxZSMDV-93" value="" style="edgeStyle=elbowEdgeStyle;elbow=vertical;strokeWidth=4;endArrow=block;endFill=1;fontStyle=1;strokeColor=#23445D;entryX=0;entryY=0.5;entryDx=0;entryDy=0;exitX=1;exitY=0.5;exitDx=0;exitDy=0;exitPerimeter=0;" edge="1" parent="1" target="3_1e2oPx1GptNMxZSMDV-92" source="3_1e2oPx1GptNMxZSMDV-80">
          <mxGeometry x="-580" y="834.5" width="100" height="100" as="geometry">
            <mxPoint x="165" y="620" as="sourcePoint" />
            <mxPoint x="70" y="955" as="targetPoint" />
            <Array as="points">
              <mxPoint x="50" y="745" />
              <mxPoint x="90" y="630" />
              <mxPoint x="50" y="920" />
            </Array>
          </mxGeometry>
        </mxCell>
        <mxCell id="3_1e2oPx1GptNMxZSMDV-94" value="" style="edgeStyle=elbowEdgeStyle;elbow=vertical;strokeWidth=4;endArrow=block;endFill=1;fontStyle=1;strokeColor=#23445D;exitX=1;exitY=0.5;exitDx=0;exitDy=0;entryX=0;entryY=0.5;entryDx=0;entryDy=0;exitPerimeter=0;" edge="1" parent="1" source="3_1e2oPx1GptNMxZSMDV-98" target="3_1e2oPx1GptNMxZSMDV-95">
          <mxGeometry x="-230" y="379.5" width="100" height="100" as="geometry">
            <mxPoint x="610" y="415" as="sourcePoint" />
            <mxPoint x="380" y="635" as="targetPoint" />
            <Array as="points">
              <mxPoint x="340" y="580" />
              <mxPoint x="320" y="575" />
              <mxPoint x="110" y="595" />
            </Array>
          </mxGeometry>
        </mxCell>
        <mxCell id="3_1e2oPx1GptNMxZSMDV-95" value="Додати проект" style="rounded=1;fillColor=#10739E;strokeColor=none;shadow=1;gradientColor=none;fontStyle=1;fontColor=#FFFFFF;fontSize=14;" vertex="1" parent="1">
          <mxGeometry x="370" y="575" width="220" height="60" as="geometry" />
        </mxCell>
        <mxCell id="3_1e2oPx1GptNMxZSMDV-96" value="" style="edgeStyle=elbowEdgeStyle;elbow=vertical;strokeWidth=4;endArrow=block;endFill=1;fontStyle=1;strokeColor=#23445D;entryX=0;entryY=0.5;entryDx=0;entryDy=0;exitX=1;exitY=0.5;exitDx=0;exitDy=0;exitPerimeter=0;" edge="1" parent="1" source="3_1e2oPx1GptNMxZSMDV-98" target="3_1e2oPx1GptNMxZSMDV-97">
          <mxGeometry y="379.5" width="100" height="100" as="geometry">
            <mxPoint x="290" y="625" as="sourcePoint" />
            <mxPoint x="610" y="635" as="targetPoint" />
            <Array as="points">
              <mxPoint x="340" y="630" />
              <mxPoint x="320" y="575" />
              <mxPoint x="330" y="655" />
              <mxPoint x="360" y="555" />
              <mxPoint x="330" y="625" />
              <mxPoint x="420" y="555" />
              <mxPoint x="330" y="645" />
              <mxPoint x="670" y="555" />
              <mxPoint x="340" y="595" />
            </Array>
          </mxGeometry>
        </mxCell>
        <mxCell id="3_1e2oPx1GptNMxZSMDV-97" value="Видалити проект" style="rounded=1;fillColor=#10739E;strokeColor=none;shadow=1;gradientColor=none;fontStyle=1;fontColor=#FFFFFF;fontSize=14;" vertex="1" parent="1">
          <mxGeometry x="370" y="655" width="220" height="60" as="geometry" />
        </mxCell>
        <mxCell id="3_1e2oPx1GptNMxZSMDV-98" value="" style="line;strokeWidth=2;html=1;rotation=90;" vertex="1" parent="1">
          <mxGeometry x="455" y="534.06" width="25.02" height="20" as="geometry" />
        </mxCell>
        <mxCell id="3_1e2oPx1GptNMxZSMDV-108" value="Задачі" style="rounded=1;fillColor=#10739E;strokeColor=none;shadow=1;gradientColor=none;fontStyle=1;fontColor=#FFFFFF;fontSize=14;" vertex="1" parent="1">
          <mxGeometry x="840" y="470" width="200" height="60" as="geometry" />
        </mxCell>
        <mxCell id="3_1e2oPx1GptNMxZSMDV-109" value="" style="edgeStyle=elbowEdgeStyle;elbow=vertical;strokeWidth=4;endArrow=block;endFill=1;fontStyle=1;strokeColor=#23445D;exitX=0.5;exitY=1;exitDx=0;exitDy=0;" edge="1" parent="1" target="3_1e2oPx1GptNMxZSMDV-108" source="3">
          <mxGeometry x="492" y="140" width="100" height="100" as="geometry">
            <mxPoint x="1232" y="370" as="sourcePoint" />
            <mxPoint x="592" y="140" as="targetPoint" />
          </mxGeometry>
        </mxCell>
        <mxCell id="3_1e2oPx1GptNMxZSMDV-114" value="Директор" style="rounded=1;fillColor=#10739E;strokeColor=none;shadow=1;gradientColor=none;fontStyle=1;fontColor=#FFFFFF;fontSize=14;" vertex="1" parent="1">
          <mxGeometry x="680" y="580" width="220" height="60" as="geometry" />
        </mxCell>
        <mxCell id="3_1e2oPx1GptNMxZSMDV-115" value="" style="edgeStyle=elbowEdgeStyle;elbow=vertical;strokeWidth=4;endArrow=block;endFill=1;fontStyle=1;strokeColor=#23445D;entryX=0;entryY=0.5;entryDx=0;entryDy=0;exitX=1;exitY=0.5;exitDx=0;exitDy=0;exitPerimeter=0;" edge="1" parent="1" source="3_1e2oPx1GptNMxZSMDV-116" target="3_1e2oPx1GptNMxZSMDV-114">
          <mxGeometry x="-260" y="717" width="100" height="100" as="geometry">
            <mxPoint x="320" y="872.5" as="sourcePoint" />
            <mxPoint x="390" y="897" as="targetPoint" />
            <Array as="points">
              <mxPoint x="640" y="640" />
              <mxPoint x="720" y="650" />
              <mxPoint x="370" y="982.5" />
              <mxPoint x="370" y="802.5" />
            </Array>
          </mxGeometry>
        </mxCell>
        <mxCell id="3_1e2oPx1GptNMxZSMDV-117" value="" style="edgeStyle=elbowEdgeStyle;elbow=vertical;strokeWidth=4;endArrow=block;endFill=1;fontStyle=1;strokeColor=#23445D;exitX=1;exitY=0.5;exitDx=0;exitDy=0;exitPerimeter=0;entryX=0;entryY=0.5;entryDx=0;entryDy=0;" edge="1" parent="1" source="3_1e2oPx1GptNMxZSMDV-116" target="3_1e2oPx1GptNMxZSMDV-118">
          <mxGeometry x="-250" y="727" width="100" height="100" as="geometry">
            <mxPoint x="560" y="792.5" as="sourcePoint" />
            <mxPoint x="370" y="982.5" as="targetPoint" />
            <Array as="points">
              <mxPoint x="640" y="680" />
              <mxPoint x="760" y="670" />
              <mxPoint x="370" y="772.5" />
              <mxPoint x="380" y="812.5" />
            </Array>
          </mxGeometry>
        </mxCell>
        <mxCell id="3_1e2oPx1GptNMxZSMDV-118" value="Адміністратор" style="rounded=1;fillColor=#10739E;strokeColor=none;shadow=1;gradientColor=none;fontStyle=1;fontColor=#FFFFFF;fontSize=14;" vertex="1" parent="1">
          <mxGeometry x="680" y="660" width="220" height="60" as="geometry" />
        </mxCell>
        <mxCell id="3_1e2oPx1GptNMxZSMDV-119" value="Робітники" style="rounded=1;fillColor=#10739E;strokeColor=none;shadow=1;gradientColor=none;fontStyle=1;fontColor=#FFFFFF;fontSize=14;" vertex="1" parent="1">
          <mxGeometry x="680" y="820" width="220" height="60" as="geometry" />
        </mxCell>
        <mxCell id="3_1e2oPx1GptNMxZSMDV-120" value="" style="edgeStyle=elbowEdgeStyle;elbow=vertical;strokeWidth=4;endArrow=block;endFill=1;fontStyle=1;strokeColor=#23445D;exitX=1;exitY=0.5;exitDx=0;exitDy=0;exitPerimeter=0;entryX=0;entryY=0.5;entryDx=0;entryDy=0;" edge="1" parent="1" source="3_1e2oPx1GptNMxZSMDV-116" target="3_1e2oPx1GptNMxZSMDV-119">
          <mxGeometry x="-260" y="972" width="100" height="100" as="geometry">
            <mxPoint x="485" y="1012.5" as="sourcePoint" />
            <mxPoint x="390" y="1092.5" as="targetPoint" />
            <Array as="points">
              <mxPoint x="640" y="660" />
              <mxPoint x="690" y="730" />
              <mxPoint x="370" y="882.5" />
              <mxPoint x="410" y="767.5" />
              <mxPoint x="370" y="1057.5" />
            </Array>
          </mxGeometry>
        </mxCell>
        <mxCell id="3_1e2oPx1GptNMxZSMDV-121" value="Співробітники" style="rounded=1;fillColor=#10739E;strokeColor=none;shadow=1;gradientColor=none;fontStyle=1;fontColor=#FFFFFF;fontSize=14;" vertex="1" parent="1">
          <mxGeometry x="680" y="740" width="220" height="60" as="geometry" />
        </mxCell>
        <mxCell id="3_1e2oPx1GptNMxZSMDV-122" value="" style="edgeStyle=elbowEdgeStyle;elbow=vertical;strokeWidth=4;endArrow=block;endFill=1;fontStyle=1;strokeColor=#23445D;entryX=0;entryY=0.5;entryDx=0;entryDy=0;exitX=1;exitY=0.5;exitDx=0;exitDy=0;exitPerimeter=0;" edge="1" parent="1" source="3_1e2oPx1GptNMxZSMDV-116" target="3_1e2oPx1GptNMxZSMDV-121">
          <mxGeometry x="-260" y="1047" width="100" height="100" as="geometry">
            <mxPoint x="485" y="832.5" as="sourcePoint" />
            <mxPoint x="390" y="1167.5" as="targetPoint" />
            <Array as="points">
              <mxPoint x="640" y="660" />
              <mxPoint x="700" y="690" />
              <mxPoint x="370" y="957.5" />
              <mxPoint x="410" y="842.5" />
              <mxPoint x="370" y="1132.5" />
            </Array>
          </mxGeometry>
        </mxCell>
        <mxCell id="3_1e2oPx1GptNMxZSMDV-116" value="" style="line;strokeWidth=2;html=1;rotation=90;" vertex="1" parent="1">
          <mxGeometry x="930" y="540" width="25" height="10" as="geometry" />
        </mxCell>
        <mxCell id="3_1e2oPx1GptNMxZSMDV-123" value="" style="edgeStyle=elbowEdgeStyle;elbow=vertical;strokeWidth=4;endArrow=none;endFill=1;fontStyle=1;strokeColor=#23445D;exitX=0.5;exitY=1;exitDx=0;exitDy=0;" edge="1" parent="1">
          <mxGeometry x="24" y="165.5" width="100" height="100" as="geometry">
            <mxPoint x="942" y="530" as="sourcePoint" />
            <mxPoint x="944.5" y="532.5" as="targetPoint" />
            <Array as="points" />
          </mxGeometry>
        </mxCell>
        <mxCell id="3_1e2oPx1GptNMxZSMDV-126" value="" style="edgeStyle=elbowEdgeStyle;elbow=vertical;strokeWidth=4;endArrow=block;endFill=1;fontStyle=1;strokeColor=#23445D;entryX=0;entryY=0.5;entryDx=0;entryDy=0;exitX=1;exitY=0.5;exitDx=0;exitDy=0;" edge="1" parent="1" target="3_1e2oPx1GptNMxZSMDV-127" source="3_1e2oPx1GptNMxZSMDV-114">
          <mxGeometry x="700" y="294.5" width="100" height="100" as="geometry">
            <mxPoint x="900" y="541.5699999999999" as="sourcePoint" />
            <mxPoint x="1310" y="550" as="targetPoint" />
            <Array as="points">
              <mxPoint x="970" y="610" />
              <mxPoint x="1030" y="570" />
              <mxPoint x="1060" y="469.99999999999994" />
              <mxPoint x="1030" y="540" />
              <mxPoint x="1120" y="469.99999999999994" />
              <mxPoint x="1030" y="560" />
              <mxPoint x="1370" y="469.99999999999994" />
              <mxPoint x="1040" y="509.99999999999994" />
            </Array>
          </mxGeometry>
        </mxCell>
        <mxCell id="3_1e2oPx1GptNMxZSMDV-127" value="Прийняти новий проект" style="rounded=1;fillColor=#10739E;strokeColor=none;shadow=1;gradientColor=none;fontStyle=1;fontColor=#FFFFFF;fontSize=14;" vertex="1" parent="1">
          <mxGeometry x="1010" y="580" width="220" height="60" as="geometry" />
        </mxCell>
        <mxCell id="3_1e2oPx1GptNMxZSMDV-128" value="" style="edgeStyle=elbowEdgeStyle;elbow=vertical;strokeWidth=4;endArrow=block;endFill=1;fontStyle=1;strokeColor=#23445D;entryX=0;entryY=0.5;entryDx=0;entryDy=0;exitX=1;exitY=0.5;exitDx=0;exitDy=0;" edge="1" parent="1" target="3_1e2oPx1GptNMxZSMDV-129" source="3_1e2oPx1GptNMxZSMDV-118">
          <mxGeometry x="710" y="374.5" width="100" height="100" as="geometry">
            <mxPoint x="900" y="680" as="sourcePoint" />
            <mxPoint x="1320" y="630" as="targetPoint" />
            <Array as="points">
              <mxPoint x="980" y="690" />
              <mxPoint x="1040" y="650" />
              <mxPoint x="1070" y="550" />
              <mxPoint x="1040" y="620" />
              <mxPoint x="1130" y="550" />
              <mxPoint x="1040" y="640" />
              <mxPoint x="1380" y="550" />
              <mxPoint x="1050" y="590" />
            </Array>
          </mxGeometry>
        </mxCell>
        <mxCell id="3_1e2oPx1GptNMxZSMDV-129" value="Оцінити ризки" style="rounded=1;fillColor=#10739E;strokeColor=none;shadow=1;gradientColor=none;fontStyle=1;fontColor=#FFFFFF;fontSize=14;" vertex="1" parent="1">
          <mxGeometry x="1010" y="660" width="220" height="60" as="geometry" />
        </mxCell>
        <mxCell id="3_1e2oPx1GptNMxZSMDV-132" value="" style="edgeStyle=elbowEdgeStyle;elbow=vertical;strokeWidth=4;endArrow=block;endFill=1;fontStyle=1;strokeColor=#23445D;entryX=0;entryY=0.5;entryDx=0;entryDy=0;exitX=1;exitY=0.5;exitDx=0;exitDy=0;" edge="1" parent="1" target="3_1e2oPx1GptNMxZSMDV-133" source="3_1e2oPx1GptNMxZSMDV-121">
          <mxGeometry x="700" y="454.5" width="100" height="100" as="geometry">
            <mxPoint x="890" y="770" as="sourcePoint" />
            <mxPoint x="1310" y="710" as="targetPoint" />
            <Array as="points">
              <mxPoint x="970" y="770" />
              <mxPoint x="1030" y="730" />
              <mxPoint x="1060" y="630" />
              <mxPoint x="1030" y="700" />
              <mxPoint x="1120" y="630" />
              <mxPoint x="1030" y="720" />
              <mxPoint x="1370" y="630" />
              <mxPoint x="1040" y="670" />
            </Array>
          </mxGeometry>
        </mxCell>
        <mxCell id="3_1e2oPx1GptNMxZSMDV-133" value="Підтримувати проект" style="rounded=1;fillColor=#10739E;strokeColor=none;shadow=1;gradientColor=none;fontStyle=1;fontColor=#FFFFFF;fontSize=14;" vertex="1" parent="1">
          <mxGeometry x="1010" y="740" width="220" height="60" as="geometry" />
        </mxCell>
        <mxCell id="3_1e2oPx1GptNMxZSMDV-134" value="" style="edgeStyle=elbowEdgeStyle;elbow=vertical;strokeWidth=4;endArrow=block;endFill=1;fontStyle=1;strokeColor=#23445D;entryX=0;entryY=0.5;entryDx=0;entryDy=0;exitX=1;exitY=0.5;exitDx=0;exitDy=0;" edge="1" parent="1" target="3_1e2oPx1GptNMxZSMDV-135" source="3_1e2oPx1GptNMxZSMDV-119">
          <mxGeometry x="710" y="534.5" width="100" height="100" as="geometry">
            <mxPoint x="910" y="850" as="sourcePoint" />
            <mxPoint x="1320" y="790" as="targetPoint" />
            <Array as="points">
              <mxPoint x="980" y="850" />
              <mxPoint x="1040" y="810" />
              <mxPoint x="1070" y="710" />
              <mxPoint x="1040" y="780" />
              <mxPoint x="1130" y="710" />
              <mxPoint x="1040" y="800" />
              <mxPoint x="1380" y="710" />
              <mxPoint x="1050" y="750" />
            </Array>
          </mxGeometry>
        </mxCell>
        <mxCell id="3_1e2oPx1GptNMxZSMDV-135" value="Будувати будинок" style="rounded=1;fillColor=#10739E;strokeColor=none;shadow=1;gradientColor=none;fontStyle=1;fontColor=#FFFFFF;fontSize=14;" vertex="1" parent="1">
          <mxGeometry x="1010" y="820" width="220" height="60" as="geometry" />
        </mxCell>
      </root>
    </mxGraphModel>
  </diagram>
</mxfile>
